<?xml version="1.0" standalone="no"?>
<!DOCTYPE svg PUBLIC "-//W3C//DTD SVG 20010904//EN"
 "http://www.w3.org/TR/2001/REC-SVG-20010904/DTD/svg10.dtd">
<svg version="1.0" xmlns="http://www.w3.org/2000/svg"
 width="512.000000pt" height="512.000000pt" viewBox="0 0 512.000000 512.000000"
 preserveAspectRatio="xMidYMid meet">
<metadata>
Created by potrace 1.11, written by Peter Selinger 2001-2013
</metadata>
<g transform="translate(0.000000,512.000000) scale(0.100000,-0.100000)"
fill="#000000" stroke="none">
<path d="M2505 5078 c-78 -44 -63 -36 -375 -213 -124 -70 -245 -139 -270 -153
-25 -14 -92 -52 -149 -84 -57 -33 -129 -74 -160 -91 -31 -17 -89 -50 -129 -74
-41 -24 -75 -43 -77 -43 -1 0 -88 -49 -191 -108 -104 -59 -285 -161 -401 -227
-117 -66 -213 -123 -213 -127 0 -3 10 -10 23 -15 12 -4 146 -82 297 -172 151
-90 279 -164 285 -164 5 0 120 63 255 140 135 77 340 193 455 257 116 65 222
127 237 137 15 11 29 19 32 19 2 0 36 18 75 40 38 22 87 49 107 61 21 11 88
50 150 85 61 35 116 64 122 64 6 0 73 -37 149 -82 76 -45 159 -93 184 -107 77
-43 551 -322 589 -346 19 -12 127 -76 240 -142 113 -66 217 -127 231 -136 24
-16 28 -14 219 94 107 60 212 121 233 135 20 13 37 21 37 18 0 -4 8 0 18 8 9
9 41 28 70 43 29 15 54 31 57 35 5 8 -643 391 -672 398 -7 2 -13 8 -13 13 0 5
-4 9 -9 9 -6 0 -61 30 -123 66 -62 37 -129 76 -148 86 -19 11 -75 44 -125 73
-49 29 -184 108 -300 176 -235 136 -213 123 -430 249 -88 51 -169 99 -180 106
-25 18 -19 20 -100 -28z"/>
<path d="M2301 3545 c-140 -80 -256 -145 -258 -145 -2 0 -20 -11 -41 -24 -20
-13 -115 -68 -210 -121 l-174 -97 42 -25 42 -25 -41 -25 -41 -24 0 -75 c0 -41
-2 -74 -5 -74 -3 0 -24 12 -46 26 -23 14 -43 24 -45 22 -2 -2 -5 -249 -6 -548
l-3 -543 200 -117 c110 -64 315 -184 455 -266 140 -83 262 -153 271 -156 15
-6 17 3 18 59 0 37 3 68 5 70 2 3 25 -7 49 -21 l45 -27 51 31 c29 16 54 30 56
30 3 0 5 -34 5 -75 0 -44 4 -75 10 -75 6 0 27 11 48 24 31 20 142 83 392 223
303 170 499 285 502 295 2 7 5 255 7 551 l2 537 -51 -30 c-28 -16 -54 -30 -59
-30 -4 0 -6 35 -5 78 l2 78 -39 22 c-39 22 -51 42 -26 42 6 0 23 9 36 19 l24
18 -59 33 c-33 19 -90 52 -129 75 -38 23 -146 86 -240 140 -93 54 -245 143
-338 197 -92 54 -173 98 -180 98 -6 0 -126 -66 -266 -145z"/>
<path d="M304 3387 c-1 -83 -5 -612 -8 -1173 l-6 -1022 177 -104 c98 -58 257
-151 353 -207 96 -56 182 -105 190 -110 50 -30 510 -300 544 -320 23 -13 93
-54 156 -91 63 -37 183 -107 265 -155 83 -48 164 -96 180 -106 17 -10 37 -22
45 -26 8 -4 36 -19 61 -35 25 -15 48 -28 51 -28 2 0 4 162 4 361 l-1 361 -175
104 c-96 57 -182 107 -190 111 -8 4 -87 49 -175 101 -88 52 -220 130 -293 173
-73 44 -136 79 -138 79 -3 0 -17 9 -32 19 -15 10 -113 69 -218 131 l-191 111
4 722 c2 397 5 763 6 812 l2 90 -239 143 c-131 78 -240 142 -242 142 -2 0 -28
16 -58 35 -30 19 -59 35 -63 35 -4 0 -9 -69 -9 -153z"/>
<path d="M4650 3408 c-96 -55 -197 -112 -223 -126 -26 -15 -56 -32 -65 -37 -9
-6 -44 -25 -78 -44 l-60 -34 -3 -346 c-1 -190 -4 -557 -6 -814 -2 -258 -5
-470 -7 -471 -4 -4 -997 -568 -1081 -615 -16 -9 -36 -20 -46 -26 -9 -5 -81
-46 -159 -90 l-142 -80 -1 -190 c0 -104 -1 -267 -2 -361 -2 -157 -1 -170 15
-166 10 2 23 10 29 18 6 8 15 14 19 14 5 0 68 34 142 76 73 42 237 135 363
207 127 72 307 174 400 227 295 168 698 396 760 430 33 18 71 41 84 51 13 11
27 19 31 19 9 0 181 98 194 110 5 5 10 186 12 402 11 1536 13 1948 6 1947 -4
0 -86 -45 -182 -101z"/>
</g>
</svg>
